<?xml version="1.0" encoding="UTF-8"?>
<svg width="22px" height="20px" viewBox="0 0 22 20" version="1.1" xmlns="http://www.w3.org/2000/svg" xmlns:xlink="http://www.w3.org/1999/xlink">
    <!-- Generator: Sketch 61.1 (89650) - https://sketch.com -->
    <title>com_zy_dl_hong14</title>
    <desc>Created with Sketch.</desc>
    <g id="页面-1" stroke="none" stroke-width="1" fill="none" fill-rule="evenodd">
        <g id="珠盘" transform="translate(-1184.000000, -452.000000)">
            <g id="com_zy_dl_hong14" transform="translate(1182.000000, 449.000000)">
                <circle id="椭圆形备份-18" stroke="#D82E20" stroke-width="3" cx="13" cy="13" r="8.5"></circle>
                <path d="M8.94140625,22 L8.94140625,4.75 L7.58203125,4.75 C7.21484375,5.4921875 6.58984375,6.2578125 5.70703125,7.046875 C4.82421875,7.8359375 3.79296875,8.5078125 2.61328125,9.0625 L2.61328125,9.0625 L2.61328125,11.1015625 C3.26953125,10.859375 4.00976562,10.4960938 4.83398438,10.0117188 C5.65820312,9.52734375 6.32421875,9.04296875 6.83203125,8.55859375 L6.83203125,8.55859375 L6.83203125,22 L8.94140625,22 Z M21.2148438,22 L21.2148438,17.8867188 L23.5351562,17.8867188 L23.5351562,15.953125 L21.2148438,15.953125 L21.2148438,4.8203125 L19.4921875,4.8203125 L11.6523438,15.953125 L11.6523438,17.8867188 L19.1054688,17.8867188 L19.1054688,22 L21.2148438,22 Z M19.1054688,15.953125 L13.7265625,15.953125 L19.1054688,8.20703125 L19.1054688,15.953125 Z" id="14" fill="#4C9C2C" fill-rule="nonzero"></path>
            </g>
        </g>
    </g>
</svg>