<?xml version="1.0" encoding="UTF-8"?>
<svg width="22px" height="20px" viewBox="0 0 22 20" version="1.1" xmlns="http://www.w3.org/2000/svg" xmlns:xlink="http://www.w3.org/1999/xlink">
    <!-- Generator: Sketch 61.1 (89650) - https://sketch.com -->
    <title>com_zy_dl_hong15</title>
    <desc>Created with Sketch.</desc>
    <g id="页面-1" stroke="none" stroke-width="1" fill="none" fill-rule="evenodd">
        <g id="珠盘" transform="translate(-1217.000000, -452.000000)">
            <g id="com_zy_dl_hong15" transform="translate(1215.000000, 449.000000)">
                <circle id="椭圆形备份-18" stroke="#D82E20" stroke-width="3" cx="13" cy="13" r="8.5"></circle>
                <path d="M8.94140625,22 L8.94140625,4.75 L7.58203125,4.75 C7.21484375,5.4921875 6.58984375,6.2578125 5.70703125,7.046875 C4.82421875,7.8359375 3.79296875,8.5078125 2.61328125,9.0625 L2.61328125,9.0625 L2.61328125,11.1015625 C3.26953125,10.859375 4.00976562,10.4960938 4.83398438,10.0117188 C5.65820312,9.52734375 6.32421875,9.04296875 6.83203125,8.55859375 L6.83203125,8.55859375 L6.83203125,22 L8.94140625,22 Z M17.8632812,22.2929688 C19.7695312,22.2929688 21.2734375,21.5976562 22.375,20.2070312 C23.28125,19.0742188 23.734375,17.7304688 23.734375,16.1757812 C23.734375,14.5429688 23.21875,13.2070312 22.1875,12.1679688 C21.15625,11.1289062 19.890625,10.609375 18.390625,10.609375 C17.2578125,10.609375 16.1757812,10.96875 15.1445312,11.6875 L15.1445312,11.6875 L16.0703125,7.0703125 L22.9257812,7.0703125 L22.9257812,5.0546875 L14.3828125,5.0546875 L12.71875,13.8789062 L14.6992188,14.1367188 C15.0117188,13.6445312 15.4414062,13.2441406 15.9882812,12.9355469 C16.5351562,12.6269531 17.1484375,12.4726562 17.828125,12.4726562 C18.921875,12.4726562 19.8066406,12.8203125 20.4824219,13.515625 C21.1582031,14.2109375 21.4960938,15.1601562 21.4960938,16.3632812 C21.4960938,17.6289062 21.1445312,18.6445312 20.4414062,19.4101562 C19.7382812,20.1757812 18.8789062,20.5585938 17.8632812,20.5585938 C17.0195312,20.5585938 16.2988281,20.2871094 15.7011719,19.7441406 C15.1035156,19.2011719 14.7226562,18.390625 14.5585938,17.3125 L14.5585938,17.3125 L12.34375,17.5 C12.484375,18.9453125 13.0488281,20.1054688 14.0371094,20.9804688 C15.0253906,21.8554688 16.3007812,22.2929688 17.8632812,22.2929688 Z" id="15" fill="#4C9C2C" fill-rule="nonzero"></path>
            </g>
        </g>
    </g>
</svg>