<?xml version="1.0" encoding="UTF-8"?>
<svg width="22px" height="20px" viewBox="0 0 22 20" version="1.1" xmlns="http://www.w3.org/2000/svg" xmlns:xlink="http://www.w3.org/1999/xlink">
    <!-- Generator: Sketch 61.1 (89650) - https://sketch.com -->
    <title>com_zy_dl_hong12</title>
    <desc>Created with Sketch.</desc>
    <g id="页面-1" stroke="none" stroke-width="1" fill="none" fill-rule="evenodd">
        <g id="珠盘" transform="translate(-1118.000000, -452.000000)">
            <g id="com_zy_dl_hong12" transform="translate(1116.000000, 449.000000)">
                <circle id="椭圆形备份-18" stroke="#D82E20" stroke-width="3" cx="13" cy="13" r="8.5"></circle>
                <path d="M8.94140625,22 L8.94140625,4.75 L7.58203125,4.75 C7.21484375,5.4921875 6.58984375,6.2578125 5.70703125,7.046875 C4.82421875,7.8359375 3.79296875,8.5078125 2.61328125,9.0625 L2.61328125,9.0625 L2.61328125,11.1015625 C3.26953125,10.859375 4.00976562,10.4960938 4.83398438,10.0117188 C5.65820312,9.52734375 6.32421875,9.04296875 6.83203125,8.55859375 L6.83203125,8.55859375 L6.83203125,22 L8.94140625,22 Z M23.4296875,22 L23.4296875,19.9726562 L15.0039063,19.9726562 C15.2382813,19.5898438 15.5351563,19.2089844 15.8945313,18.8300781 C16.2539062,18.4511719 17.0664062,17.7304688 18.3320312,16.6679688 C19.8476562,15.3867188 20.9316406,14.3789062 21.5839844,13.6445312 C22.2363281,12.9101562 22.703125,12.2109375 22.984375,11.546875 C23.265625,10.8828125 23.40625,10.2070312 23.40625,9.51953125 C23.40625,8.16796875 22.9257812,7.03515625 21.9648438,6.12109375 C21.0039062,5.20703125 19.6992188,4.75 18.0507812,4.75 C16.4179688,4.75 15.1171875,5.17382812 14.1484375,6.02148438 C13.1796875,6.86914062 12.6210938,8.1015625 12.4726563,9.71875 L12.4726563,9.71875 L14.640625,9.94140625 C14.6484375,8.86328125 14.9570313,8.01953125 15.5664063,7.41015625 C16.1757812,6.80078125 16.9882812,6.49609375 18.0039062,6.49609375 C18.9648438,6.49609375 19.7441406,6.78320312 20.3417969,7.35742188 C20.9394531,7.93164062 21.2382812,8.63671875 21.2382812,9.47265625 C21.2382812,10.2695312 20.9101562,11.1152344 20.2539062,12.0097656 C19.5976562,12.9042969 18.3359375,14.1171875 16.46875,15.6484375 C15.265625,16.6328125 14.3457031,17.5 13.7089844,18.25 C13.0722656,19 12.609375,19.7617188 12.3203125,20.5351562 C12.140625,21.0039062 12.0585938,21.4921875 12.0742188,22 L12.0742188,22 L23.4296875,22 Z" id="12" fill="#4C9C2C" fill-rule="nonzero"></path>
            </g>
        </g>
    </g>
</svg>