<?xml version="1.0" encoding="UTF-8"?>
<svg width="20px" height="20px" viewBox="0 0 20 20" version="1.1" xmlns="http://www.w3.org/2000/svg" xmlns:xlink="http://www.w3.org/1999/xlink">
    <!-- Generator: Sketch 61.1 (89650) - https://sketch.com -->
    <title>com_zy_dl_hong9</title>
    <desc>Created with Sketch.</desc>
    <g id="页面-1" stroke="none" stroke-width="1" fill="none" fill-rule="evenodd">
        <g id="珠盘" transform="translate(-1021.000000, -452.000000)">
            <g id="com_zy_dl_hong9" transform="translate(1021.000000, 449.000000)">
                <circle id="椭圆形备份-18" stroke="#D82E20" stroke-width="3" cx="10" cy="13" r="8.5"></circle>
                <path d="M9.140625,22.2929688 C10.40625,22.2929688 11.5097656,21.953125 12.4511719,21.2734375 C13.3925781,20.59375 14.1015625,19.6035156 14.578125,18.3027344 C15.0546875,17.0019531 15.2929688,15.2539062 15.2929688,13.0585938 C15.2929688,10.9492188 15.0527344,9.33789062 14.5722656,8.22460938 C14.0917969,7.11132812 13.3886719,6.25390625 12.4628906,5.65234375 C11.5371094,5.05078125 10.515625,4.75 9.3984375,4.75 C7.8515625,4.75 6.56445312,5.28125 5.53710938,6.34375 C4.50976562,7.40625 3.99609375,8.80859375 3.99609375,10.5507812 C3.99609375,12.2382812 4.48828125,13.5976562 5.47265625,14.6289062 C6.45703125,15.6601562 7.66015625,16.1757812 9.08203125,16.1757812 C9.93359375,16.1757812 10.7246094,15.9667969 11.4550781,15.5488281 C12.1855469,15.1308594 12.7617188,14.5859375 13.1835938,13.9140625 C13.1914062,14.1015625 13.1953125,14.2421875 13.1953125,14.3359375 C13.1953125,15.2109375 13.0898438,16.0703125 12.8789062,16.9140625 C12.6679688,17.7578125 12.40625,18.4277344 12.09375,18.9238281 C11.78125,19.4199219 11.3808594,19.8164062 10.8925781,20.1132812 C10.4042969,20.4101562 9.8359375,20.5585938 9.1875,20.5585938 C8.4296875,20.5585938 7.80859375,20.34375 7.32421875,19.9140625 C6.83984375,19.484375 6.51171875,18.7929688 6.33984375,17.8398438 L6.33984375,17.8398438 L4.3125,18.0273438 C4.484375,19.3789062 4.99609375,20.4277344 5.84765625,21.1738281 C6.69921875,21.9199219 7.796875,22.2929688 9.140625,22.2929688 Z M9.59765625,14.3125 C8.62890625,14.3125 7.81445312,13.9707031 7.15429688,13.2871094 C6.49414062,12.6035156 6.1640625,11.7148438 6.1640625,10.6210938 C6.1640625,9.40234375 6.51171875,8.41015625 7.20703125,7.64453125 C7.90234375,6.87890625 8.71875,6.49609375 9.65625,6.49609375 C10.5625,6.49609375 11.3378906,6.8515625 11.9824219,7.5625 C12.6269531,8.2734375 12.9492188,9.234375 12.9492188,10.4453125 C12.9492188,11.65625 12.6347656,12.6035156 12.0058594,13.2871094 C11.3769531,13.9707031 10.5742188,14.3125 9.59765625,14.3125 Z" id="9" fill="#4C9C2C" fill-rule="nonzero"></path>
            </g>
        </g>
    </g>
</svg>