<?xml version="1.0" encoding="UTF-8"?>
<svg width="20px" height="20px" viewBox="0 0 20 20" version="1.1" xmlns="http://www.w3.org/2000/svg" xmlns:xlink="http://www.w3.org/1999/xlink">
    <!-- Generator: Sketch 61.1 (89650) - https://sketch.com -->
    <title>com_zy_dl_hong2</title>
    <desc>Created with Sketch.</desc>
    <g id="页面-1" stroke="none" stroke-width="1" fill="none" fill-rule="evenodd">
        <g id="珠盘" transform="translate(-811.000000, -452.000000)">
            <g id="com_zy_dl_hong2" transform="translate(811.000000, 449.000000)">
                <circle id="椭圆形备份-18" stroke="#D82E20" stroke-width="3" cx="10" cy="13" r="8.5"></circle>
                <path d="M15.0820312,22 L15.0820312,19.9726562 L6.65625,19.9726562 C6.890625,19.5898438 7.1875,19.2089844 7.546875,18.8300781 C7.90625,18.4511719 8.71875,17.7304688 9.984375,16.6679688 C11.5,15.3867188 12.5839844,14.3789062 13.2363281,13.6445312 C13.8886719,12.9101562 14.3554688,12.2109375 14.6367188,11.546875 C14.9179688,10.8828125 15.0585938,10.2070312 15.0585938,9.51953125 C15.0585938,8.16796875 14.578125,7.03515625 13.6171875,6.12109375 C12.65625,5.20703125 11.3515625,4.75 9.703125,4.75 C8.0703125,4.75 6.76953125,5.17382812 5.80078125,6.02148438 C4.83203125,6.86914062 4.2734375,8.1015625 4.125,9.71875 L4.125,9.71875 L6.29296875,9.94140625 C6.30078125,8.86328125 6.609375,8.01953125 7.21875,7.41015625 C7.828125,6.80078125 8.640625,6.49609375 9.65625,6.49609375 C10.6171875,6.49609375 11.3964844,6.78320312 11.9941406,7.35742188 C12.5917969,7.93164062 12.890625,8.63671875 12.890625,9.47265625 C12.890625,10.2695312 12.5625,11.1152344 11.90625,12.0097656 C11.25,12.9042969 9.98828125,14.1171875 8.12109375,15.6484375 C6.91796875,16.6328125 5.99804688,17.5 5.36132812,18.25 C4.72460938,19 4.26171875,19.7617188 3.97265625,20.5351562 C3.79296875,21.0039062 3.7109375,21.4921875 3.7265625,22 L3.7265625,22 L15.0820312,22 Z" id="2" fill="#4C9C2C" fill-rule="nonzero"></path>
            </g>
        </g>
    </g>
</svg>