<?xml version="1.0" encoding="UTF-8"?>
<svg width="20px" height="20px" viewBox="0 0 20 20" version="1.1" xmlns="http://www.w3.org/2000/svg" xmlns:xlink="http://www.w3.org/1999/xlink">
    <!-- Generator: Sketch 61.1 (89650) - https://sketch.com -->
    <title>com_zy_dl_hong3</title>
    <desc>Created with Sketch.</desc>
    <g id="页面-1" stroke="none" stroke-width="1" fill="none" fill-rule="evenodd">
        <g id="珠盘" transform="translate(-841.000000, -452.000000)">
            <g id="com_zy_dl_hong3" transform="translate(841.000000, 449.000000)">
                <circle id="椭圆形备份-18" stroke="#D82E20" stroke-width="3" cx="10" cy="13" r="8.5"></circle>
                <path d="M9.46875,22.3046875 C11.140625,22.3046875 12.5234375,21.7832031 13.6171875,20.7402344 C14.7109375,19.6972656 15.2578125,18.4257812 15.2578125,16.9257812 C15.2578125,15.8164062 14.9765625,14.8925781 14.4140625,14.1542969 C13.8515625,13.4160156 13.0625,12.9296875 12.046875,12.6953125 C12.828125,12.3359375 13.4179688,11.8515625 13.8164062,11.2421875 C14.2148438,10.6328125 14.4140625,9.95703125 14.4140625,9.21484375 C14.4140625,8.43359375 14.2050781,7.6953125 13.7871094,7 C13.3691406,6.3046875 12.765625,5.75585938 11.9765625,5.35351562 C11.1875,4.95117188 10.3242188,4.75 9.38671875,4.75 C8.02734375,4.75 6.890625,5.13867188 5.9765625,5.91601562 C5.0625,6.69335938 4.4765625,7.7890625 4.21875,9.203125 L4.21875,9.203125 L6.328125,9.578125 C6.484375,8.546875 6.8359375,7.7734375 7.3828125,7.2578125 C7.9296875,6.7421875 8.61328125,6.484375 9.43359375,6.484375 C10.2617188,6.484375 10.9375,6.73828125 11.4609375,7.24609375 C11.984375,7.75390625 12.2460938,8.39453125 12.2460938,9.16796875 C12.2460938,10.1445312 11.8867188,10.8671875 11.1679688,11.3359375 C10.4492188,11.8046875 9.640625,12.0390625 8.7421875,12.0390625 C8.65625,12.0390625 8.54296875,12.03125 8.40234375,12.015625 L8.40234375,12.015625 L8.16796875,13.8671875 C8.76171875,13.7109375 9.2578125,13.6328125 9.65625,13.6328125 C10.6328125,13.6328125 11.4375,13.9472656 12.0703125,14.5761719 C12.703125,15.2050781 13.0195312,16.0039062 13.0195312,16.9726562 C13.0195312,17.9882812 12.6777344,18.8398438 11.9941406,19.5273438 C11.3105469,20.2148438 10.4726562,20.5585938 9.48046875,20.5585938 C8.64453125,20.5585938 7.93554688,20.2949219 7.35351562,19.7675781 C6.77148438,19.2402344 6.359375,18.3789062 6.1171875,17.1835938 L6.1171875,17.1835938 L4.0078125,17.4648438 C4.1484375,18.8945312 4.71679688,20.0585938 5.71289062,20.9570312 C6.70898438,21.8554688 7.9609375,22.3046875 9.46875,22.3046875 Z" id="3" fill="#4C9C2C" fill-rule="nonzero"></path>
            </g>
        </g>
    </g>
</svg>