<?xml version="1.0" encoding="UTF-8"?>
<svg width="30px" height="30px" viewBox="0 0 30 30" version="1.1" xmlns="http://www.w3.org/2000/svg" xmlns:xlink="http://www.w3.org/1999/xlink">
    <!-- Generator: Sketch 61.1 (89650) - https://sketch.com -->
    <title>com_zyxz_xiao2</title>
    <desc>Created with Sketch.</desc>
    <g id="页面-1" stroke="none" stroke-width="1" fill="none" fill-rule="evenodd">
        <g id="珠盘" transform="translate(-1395.000000, -262.000000)">
            <g id="com_zyxz_xiao2" transform="translate(1395.000000, 262.000000)">
                <g id="就备份-2">
                    <g id="磷备份" transform="translate(15.000000, 15.000000) scale(-1, -1) translate(-15.000000, -15.000000) ">
                        <path d="M15,0 C23.2842712,0 30,6.71572875 30,15 C30,17.2905168 29.4866052,19.4611237 28.5686102,21.4030263 C27.9301261,21.1429026 27.2317514,21 26.5,21 C23.4624339,21 21,23.4624339 21,26.5 C21,27.2317514 21.1429026,27.9301261 21.402323,28.5687392 C19.4611237,29.4866052 17.2905168,30 15,30 C6.71572875,30 0,23.2842712 0,15 C0,6.71572875 6.71572875,0 15,0 Z" id="形状结合" fill="#1E51B4"></path>
                        <circle id="椭圆形" fill="#C52A1D" cx="26.5" cy="26.5" r="3.5"></circle>
                    </g>
                </g>
                <path d="M11.1943359,23.2480469 C11.8740234,23.2480469 12.6796875,23.2363281 13.6113281,23.2128906 C14.4550781,23.1835938 15.0498047,22.9785156 15.3955078,22.5976562 C15.7353516,22.2285156 15.9052734,21.6132812 15.9052734,20.7519531 L15.9052734,20.7519531 L15.9052734,7.03222656 L14.4287109,7.03222656 L14.4287109,20.3300781 C14.4287109,20.8984375 14.3349609,21.277832 14.1474609,21.4682617 C13.9599609,21.6586914 13.5849609,21.7539062 13.0224609,21.7539062 C12.4013672,21.7539062 11.6953125,21.7363281 10.9042969,21.7011719 C11.0390625,22.2871094 11.1357422,22.8027344 11.1943359,23.2480469 Z M8.29394531,19.7060547 C9.42480469,17.3857422 10.5644531,14.5351562 11.7128906,11.1542969 L11.7128906,11.1542969 L10.2714844,10.7236328 C9.79101562,12.3173828 9.29589844,13.7470703 8.78613281,15.0126953 C8.24707031,16.3427734 7.6171875,17.6904297 6.89648438,19.0556641 C7.39453125,19.2373047 7.86035156,19.4541016 8.29394531,19.7060547 Z M21.6884766,19.4599609 L23.1298828,18.8710938 C22.5322266,17.5234375 21.4746094,15.2060547 19.9570312,11.9189453 C19.7167969,11.4033203 19.5410156,11.0253906 19.4296875,10.7851562 L19.4296875,10.7851562 L18.0849609,11.2597656 C19.5263672,14.3828125 20.7275391,17.1162109 21.6884766,19.4599609 L21.6884766,19.4599609 Z" id="小" fill="#FFFFFF" fill-rule="nonzero"></path>
            </g>
        </g>
    </g>
</svg>