<?xml version="1.0" encoding="UTF-8"?>
<svg width="30px" height="30px" viewBox="0 0 30 30" version="1.1" xmlns="http://www.w3.org/2000/svg" xmlns:xlink="http://www.w3.org/1999/xlink">
    <!-- Generator: Sketch 61.1 (89650) - https://sketch.com -->
    <title>com_zyxz_da4</title>
    <desc>Created with Sketch.</desc>
    <g id="页面-1" stroke="none" stroke-width="1" fill="none" fill-rule="evenodd">
        <g id="珠盘" transform="translate(-1315.000000, -122.000000)">
            <g id="com_zyxz_da4" transform="translate(1315.000000, 122.000000)">
                <circle id="椭圆形" fill="#D82E20" cx="15" cy="15" r="15"></circle>
                <path d="M8.00390625,23.4326172 C10.1367188,22.2373047 11.7421875,20.9863281 12.8203125,19.6796875 C13.8867188,18.390625 14.6132812,16.8232422 15,14.9775391 C15.4863281,16.8818359 16.2744141,18.4638672 17.3642578,19.7236328 C18.4423828,20.9775391 20.0068359,22.1289062 22.0576172,23.1777344 C22.2392578,22.890625 22.5644531,22.4277344 23.0332031,21.7890625 C21.5214844,21.1035156 20.2910156,20.3652344 19.3417969,19.5742188 C18.3691406,18.7597656 17.5957031,17.8105469 17.0214844,16.7265625 C16.4589844,15.671875 16.03125,14.3857422 15.7382812,12.8681641 L15.7382812,12.8681641 L22.8134766,12.8681641 L22.8134766,11.4707031 L15.703125,11.4707031 C15.7089844,11.2363281 15.7177734,10.8671875 15.7294922,10.3632812 C15.7763672,8.76953125 15.8027344,7.62402344 15.8085938,6.92675781 L15.8085938,6.92675781 L14.3320312,6.92675781 C14.3320312,8.77246094 14.2910156,10.2871094 14.2089844,11.4707031 L14.2089844,11.4707031 L7.16894531,11.4707031 L7.16894531,12.8681641 L14.0947266,12.8681641 C13.9306641,14.2802734 13.6054688,15.5048828 13.1191406,16.5419922 C12.609375,17.6376953 11.8681641,18.6308594 10.8955078,19.5214844 C9.91113281,20.4296875 8.61328125,21.3085938 7.00195312,22.1582031 L7.00195312,22.1582031 L8.00390625,23.4326172 Z" id="大" fill="#FFFFFF" fill-rule="nonzero"></path>
            </g>
        </g>
    </g>
</svg>