<?xml version="1.0" encoding="UTF-8"?>
<svg width="30px" height="30px" viewBox="0 0 30 30" version="1.1" xmlns="http://www.w3.org/2000/svg" xmlns:xlink="http://www.w3.org/1999/xlink">
    <!-- Generator: Sketch 61.2 (89653) - https://sketch.com -->
    <title>com_zyxz_hel</title>
    <desc>Created with Sketch.</desc>
    <g id="页面-1" stroke="none" stroke-width="1" fill="none" fill-rule="evenodd">
        <g id="珠盘" transform="translate(-846.000000, -405.000000)">
            <g id="com_zyxz_hel" transform="translate(846.000000, 405.000000)">
                <path d="M15,0 C23.2842712,0 30,6.71572875 30,15 C30,17.2905168 29.4866052,19.4611237 28.5686102,21.4030263 C27.9301261,21.1429026 27.2317514,21 26.5,21 C23.4624339,21 21,23.4624339 21,26.5 C21,27.2317514 21.1429026,27.9301261 21.402323,28.5687392 C19.4611237,29.4866052 17.2905168,30 15,30 C6.71572875,30 0,23.2842712 0,15 C0,6.71572875 6.71572875,0 15,0 Z" id="形状结合备份-9" fill="#346E25"></path>
                <path d="M11.34375,23.4326172 L11.34375,16.1728516 C11.8125,16.6416016 12.5126953,17.3798828 13.4443359,18.3876953 L13.4443359,18.3876953 L14.3496094,17.359375 C13.5703125,16.5917969 12.7412109,15.8095703 11.8623047,15.0126953 L11.8623047,15.0126953 L11.34375,15.5664062 L11.34375,13.2197266 L14.2265625,13.2197266 L14.2265625,11.9453125 L11.34375,11.9453125 L11.34375,9.17675781 C11.6777344,9.14746094 12.1757812,9.10351562 12.8378906,9.04492188 C13.3652344,8.9921875 13.7607422,8.95703125 14.0244141,8.93945312 L14.0244141,8.93945312 L13.7255859,7.66503906 C11.7802734,7.88769531 9.58886719,8.05761719 7.15136719,8.17480469 C7.22753906,8.46777344 7.3125,8.89257812 7.40625,9.44921875 C8.32617188,9.4140625 9.20800781,9.36132812 10.0517578,9.29101562 L10.0517578,9.29101562 L10.0517578,11.9453125 L7.08105469,11.9453125 L7.08105469,13.2197266 L9.88476562,13.2197266 C9.48632812,14.3330078 9.04101562,15.3291016 8.54882812,16.2080078 C8.04492188,17.1103516 7.45605469,17.96875 6.78222656,18.7832031 C6.79394531,18.8066406 6.81152344,18.8476562 6.83496094,18.90625 C7.06933594,19.515625 7.23632812,19.984375 7.3359375,20.3125 C8.50195312,18.7949219 9.40722656,17.1894531 10.0517578,15.4960938 L10.0517578,15.4960938 L10.0517578,23.4326172 L11.34375,23.4326172 Z M16.6083984,22.9755859 L16.6083984,21.2880859 L21.0205078,21.2880859 L21.0205078,22.9316406 L22.3476562,22.9316406 L22.3476562,8.7109375 L15.2988281,8.7109375 L15.2988281,22.9755859 L16.6083984,22.9755859 Z M21.0205078,20.0136719 L16.6083984,20.0136719 L16.6083984,9.98535156 L21.0205078,9.98535156 L21.0205078,20.0136719 Z" id="和" fill="#FFFFFF" fill-rule="nonzero"></path>
                <circle id="椭圆形备份-10" fill="#1E51B4" cx="26.5" cy="26.5" r="3.5"></circle>
            </g>
        </g>
    </g>
</svg>