<?xml version="1.0" encoding="UTF-8"?>
<svg width="30px" height="30px" viewBox="0 0 30 30" version="1.1" xmlns="http://www.w3.org/2000/svg" xmlns:xlink="http://www.w3.org/1999/xlink">
    <!-- Generator: Sketch 61.2 (89653) - https://sketch.com -->
    <title>com_zyxz_6h</title>
    <desc>Created with Sketch.</desc>
    <g id="页面-1" stroke="none" stroke-width="1" fill="none" fill-rule="evenodd">
        <g id="珠盘" transform="translate(-886.000000, -525.000000)">
            <g id="com_zyxz_6h" transform="translate(886.000000, 525.000000)">
                <g id="磷备份" transform="translate(15.000000, 15.000000) scale(-1, -1) translate(-15.000000, -15.000000) ">
                    <path d="M15,0 C23.2842712,0 30,6.71572875 30,15 C30,17.2905168 29.4866052,19.4611237 28.5686102,21.4030263 C27.9301261,21.1429026 27.2317514,21 26.5,21 C23.4624339,21 21,23.4624339 21,26.5 C21,27.2317514 21.1429026,27.9301261 21.402323,28.5687392 C19.4611237,29.4866052 17.2905168,30 15,30 C6.71572875,30 0,23.2842712 0,15 C0,6.71572875 6.71572875,0 15,0 Z" id="形状结合" fill="#D82E20"></path>
                    <circle id="椭圆形" fill="#C52A1D" cx="26.5" cy="26.5" r="3.5"></circle>
                </g>
                <path d="M14.7226562,22.2441406 C15.5820312,22.2441406 16.3502604,22.0390625 17.0273438,21.6289062 C17.7044271,21.21875 18.2366536,20.6279297 18.6240234,19.8564453 C19.0113932,19.0849609 19.2050781,18.25 19.2050781,17.3515625 C19.2050781,15.984375 18.7932943,14.8694661 17.9697266,14.0068359 C17.1461589,13.1442057 16.1484375,12.7128906 14.9765625,12.7128906 C14.3059896,12.7128906 13.6647135,12.8691406 13.0527344,13.1816406 C12.4407552,13.4941406 11.9231771,13.9726562 11.5,14.6171875 C11.5130208,13.1848958 11.6790365,12.0813802 11.9980469,11.3066406 C12.3170573,10.531901 12.7532552,9.94270833 13.3066406,9.5390625 C13.7298177,9.2265625 14.2213542,9.0703125 14.78125,9.0703125 C15.4778646,9.0703125 16.0638021,9.32096354 16.5390625,9.82226562 C16.8255208,10.1347656 17.046875,10.6360677 17.203125,11.3261719 L17.203125,11.3261719 L18.9511719,11.1894531 C18.8079427,10.0761719 18.3766276,9.20377604 17.6572266,8.57226562 C16.9378255,7.94075521 16.014974,7.625 14.8886719,7.625 C13.3782552,7.625 12.1770833,8.171875 11.2851562,9.265625 C10.2630208,10.5221354 9.75195312,12.5338542 9.75195312,15.3007812 C9.75195312,17.7747396 10.2141927,19.5504557 11.1386719,20.6279297 C12.063151,21.7054036 13.2578125,22.2441406 14.7226562,22.2441406 Z M14.6933594,20.7988281 C14.1855469,20.7988281 13.7005208,20.6539714 13.2382812,20.3642578 C12.7760417,20.0745443 12.4163411,19.6529948 12.1591797,19.0996094 C11.9020182,18.546224 11.7734375,17.9667969 11.7734375,17.3613281 C11.7734375,16.436849 12.0501302,15.6897786 12.6035156,15.1201172 C13.156901,14.5504557 13.8307292,14.265625 14.625,14.265625 C15.4257812,14.265625 16.0898438,14.5504557 16.6171875,15.1201172 C17.1445312,15.6897786 17.4082031,16.469401 17.4082031,17.4589844 C17.4082031,18.4876302 17.141276,19.3014323 16.6074219,19.9003906 C16.0735677,20.499349 15.4355469,20.7988281 14.6933594,20.7988281 Z" id="6" fill="#FFFFFF" fill-rule="nonzero"></path>
            </g>
        </g>
    </g>
</svg>