<?xml version="1.0" encoding="UTF-8"?>
<svg width="30px" height="30px" viewBox="0 0 30 30" version="1.1" xmlns="http://www.w3.org/2000/svg" xmlns:xlink="http://www.w3.org/1999/xlink">
    <!-- Generator: Sketch 61.2 (89653) - https://sketch.com -->
    <title>com_zyxz_xianh</title>
    <desc>Created with Sketch.</desc>
    <g id="页面-1" stroke="none" stroke-width="1" fill="none" fill-rule="evenodd">
        <g id="珠盘" transform="translate(-886.000000, -485.000000)">
            <g id="com_zyxz_xianh" transform="translate(886.000000, 485.000000)">
                <g id="就备份-2">
                    <g id="磷备份" transform="translate(15.000000, 15.000000) scale(-1, -1) translate(-15.000000, -15.000000) ">
                        <path d="M15,0 C23.2842712,0 30,6.71572875 30,15 C30,17.2905168 29.4866052,19.4611237 28.5686102,21.4030263 C27.9301261,21.1429026 27.2317514,21 26.5,21 C23.4624339,21 21,23.4624339 21,26.5 C21,27.2317514 21.1429026,27.9301261 21.402323,28.5687392 C19.4611237,29.4866052 17.2905168,30 15,30 C6.71572875,30 0,23.2842712 0,15 C0,6.71572875 6.71572875,0 15,0 Z" id="形状结合" fill="#1E51B4"></path>
                        <circle id="椭圆形" fill="#C52A1D" cx="26.5" cy="26.5" r="3.5"></circle>
                    </g>
                </g>
                <path d="M10.4208984,10.0820312 L11.5458984,9.17675781 C10.7607422,8.30371094 10.0166016,7.52148438 9.31347656,6.83007812 L9.31347656,6.83007812 L8.25878906,7.62109375 C8.86816406,8.23046875 9.58886719,9.05078125 10.4208984,10.0820312 L10.4208984,10.0820312 Z M17.6806641,23.3798828 L20.0625,23.3447266 C20.8476562,23.3154297 21.4189453,23.1015625 21.7763672,22.703125 C22.1455078,22.2929688 22.3300781,21.6513672 22.3300781,20.7783203 L22.3300781,20.7783203 L22.3300781,7.78808594 L12.7060547,7.78808594 L12.7060547,9.10644531 L21.0205078,9.10644531 L21.0205078,20.4619141 C21.0205078,21.0302734 20.9106445,21.4272461 20.690918,21.652832 C20.4711914,21.878418 20.0947266,21.9912109 19.5615234,21.9912109 C18.8291016,21.9912109 18.1025391,21.9736328 17.3818359,21.9384766 C17.4990234,22.3662109 17.5986328,22.8466797 17.6806641,23.3798828 L17.6806641,23.3798828 Z M15.6240234,21.7363281 L15.6240234,16.5244141 C16.7314453,17.4384766 17.8769531,18.4316406 19.0605469,19.5039062 L19.0605469,19.5039062 L19.8955078,18.4316406 C18.4306641,17.2128906 17.1621094,16.1787109 16.0898438,15.3291016 L16.0898438,15.3291016 L15.6240234,15.9003906 L15.6240234,13.9404297 L19.5439453,13.9404297 L19.5439453,12.6835938 L15.6240234,12.6835938 L15.6240234,10.1171875 L14.3144531,10.1171875 L14.3144531,12.6835938 L10.4560547,12.6835938 L10.4560547,13.9404297 L14.1474609,13.9404297 C12.8994141,16.0498047 11.4052734,17.7490234 9.66503906,19.0380859 C9.96386719,19.4423828 10.2333984,19.8671875 10.4736328,20.3125 C11.2880859,19.609375 12,18.8916016 12.609375,18.1591797 C13.2070312,17.4501953 13.7753906,16.6416016 14.3144531,15.7333984 L14.3144531,15.7333984 L14.3144531,21.7363281 L15.6240234,21.7363281 Z M8.97949219,23.4326172 L8.97949219,10.4160156 L7.65234375,10.4160156 L7.65234375,23.4326172 L8.97949219,23.4326172 Z" id="闲" fill="#FFFFFF" fill-rule="nonzero"></path>
            </g>
        </g>
    </g>
</svg>