<?xml version="1.0" encoding="UTF-8"?>
<svg width="30px" height="30px" viewBox="0 0 30 30" version="1.1" xmlns="http://www.w3.org/2000/svg" xmlns:xlink="http://www.w3.org/1999/xlink">
    <!-- Generator: Sketch 61.2 (89653) - https://sketch.com -->
    <title>com_zyxz_zhaungdui</title>
    <desc>Created with Sketch.</desc>
    <g id="页面-1" stroke="none" stroke-width="1" fill="none" fill-rule="evenodd">
        <g id="珠盘" transform="translate(-926.000000, -445.000000)">
            <g id="com_zyxz_zhaungdui" transform="translate(926.000000, 445.000000)">
                <g id="编组备份-30">
                    <path d="M15,0 C23.2842712,0 30,6.71572875 30,15 C30,17.2905168 29.4866052,19.4611237 28.5686102,21.4030263 C27.9301261,21.1429026 27.2317514,21 26.5,21 C23.4624339,21 21,23.4624339 21,26.5 C21,27.2317514 21.1429026,27.9301261 21.402323,28.5687392 C19.4611237,29.4866052 17.2905168,30 15,30 C6.71572875,30 0,23.2842712 0,15 C0,12.7094832 0.513394808,10.5388763 1.43138982,8.59697369 C2.06987392,8.85709737 2.76824861,9 3.5,9 C6.53756612,9 9,6.53756612 9,3.5 C9,2.76824861 8.85709737,2.06987392 8.59767698,1.43126078 C10.5388763,0.513394808 12.7094832,0 15,0 Z" id="形状结合" fill="#D82E20"></path>
                    <circle id="椭圆形" fill="#C52A1D" transform="translate(3.500000, 3.500000) scale(-1, -1) translate(-3.500000, -3.500000) " cx="3.5" cy="3.5" r="3.5"></circle>
                    <circle id="椭圆形备份-11" fill="#1E51B4" cx="26.5" cy="26.5" r="3.5"></circle>
                </g>
                <path d="M8.00390625,23.3974609 C8.53710938,22.5009766 8.93847656,21.6601562 9.20800781,20.875 C9.48925781,20.0488281 9.68554688,19.0996094 9.796875,18.0273438 C9.90234375,17.0195312 9.95507812,15.6806641 9.95507812,14.0107422 L9.95507812,14.0107422 L9.95507812,10.5654297 L22.9453125,10.5654297 L22.9453125,9.21191406 L16.5117188,9.21191406 L17.1269531,9.00976562 L15.9931641,6.84765625 L14.5341797,7.234375 C14.9443359,7.94921875 15.2900391,8.60839844 15.5712891,9.21191406 L15.5712891,9.21191406 L8.54003906,9.21191406 L8.54003906,14.2392578 C8.54003906,15.7451172 8.49609375,16.9169922 8.40820312,17.7548828 C8.3203125,18.6865234 8.15332031,19.4980469 7.90722656,20.1894531 C7.67871094,20.8515625 7.32128906,21.5693359 6.83496094,22.3427734 C7.43847656,22.8583984 7.828125,23.2099609 8.00390625,23.3974609 Z M22.9804688,22.5625 L22.9804688,21.2529297 L17.3642578,21.2529297 L17.3642578,16.2871094 L22.2246094,16.2871094 L22.2246094,14.9599609 L17.3642578,14.9599609 L17.3642578,11.4443359 L15.9404297,11.4443359 L15.9404297,14.9599609 L11.3613281,14.9599609 L11.3613281,16.2871094 L15.9404297,16.2871094 L15.9404297,21.2529297 L10.3066406,21.2529297 L10.3066406,22.5625 L22.9804688,22.5625 Z" id="庄" fill="#FFFFFF" fill-rule="nonzero"></path>
            </g>
        </g>
    </g>
</svg>