<?xml version="1.0" encoding="UTF-8"?>
<svg width="30px" height="30px" viewBox="0 0 30 30" version="1.1" xmlns="http://www.w3.org/2000/svg" xmlns:xlink="http://www.w3.org/1999/xlink">
    <!-- Generator: Sketch 61.2 (89653) - https://sketch.com -->
    <title>com_zyxz_lz_zhuang</title>
    <desc>Created with Sketch.</desc>
    <g id="页面-1" stroke="none" stroke-width="1" fill="none" fill-rule="evenodd">
        <g id="珠盘" transform="translate(-806.000000, -445.000000)">
            <g id="com_zyxz_lz_zhuang" transform="translate(806.000000, 445.000000)">
                <circle id="椭圆形" fill="#D82E20" cx="15" cy="15" r="15"></circle>
                <path d="M8.00390625,23.3974609 C8.53710938,22.5009766 8.93847656,21.6601562 9.20800781,20.875 C9.48925781,20.0488281 9.68554688,19.0996094 9.796875,18.0273438 C9.90234375,17.0195312 9.95507812,15.6806641 9.95507812,14.0107422 L9.95507812,14.0107422 L9.95507812,10.5654297 L22.9453125,10.5654297 L22.9453125,9.21191406 L16.5117188,9.21191406 L17.1269531,9.00976562 L15.9931641,6.84765625 L14.5341797,7.234375 C14.9443359,7.94921875 15.2900391,8.60839844 15.5712891,9.21191406 L15.5712891,9.21191406 L8.54003906,9.21191406 L8.54003906,14.2392578 C8.54003906,15.7451172 8.49609375,16.9169922 8.40820312,17.7548828 C8.3203125,18.6865234 8.15332031,19.4980469 7.90722656,20.1894531 C7.67871094,20.8515625 7.32128906,21.5693359 6.83496094,22.3427734 C7.43847656,22.8583984 7.828125,23.2099609 8.00390625,23.3974609 Z M22.9804688,22.5625 L22.9804688,21.2529297 L17.3642578,21.2529297 L17.3642578,16.2871094 L22.2246094,16.2871094 L22.2246094,14.9599609 L17.3642578,14.9599609 L17.3642578,11.4443359 L15.9404297,11.4443359 L15.9404297,14.9599609 L11.3613281,14.9599609 L11.3613281,16.2871094 L15.9404297,16.2871094 L15.9404297,21.2529297 L10.3066406,21.2529297 L10.3066406,22.5625 L22.9804688,22.5625 Z" id="庄" fill="#FFFFFF" fill-rule="nonzero"></path>
            </g>
        </g>
    </g>
</svg>