<?xml version="1.0" encoding="UTF-8"?>
<svg width="20px" height="20px" viewBox="0 0 20 20" version="1.1" xmlns="http://www.w3.org/2000/svg" xmlns:xlink="http://www.w3.org/1999/xlink">
    <!-- Generator: Sketch 61.2 (89653) - https://sketch.com -->
    <title>kuisun_lan</title>
    <desc>Created with Sketch.</desc>
    <g id="页面-1" stroke="none" stroke-width="1" fill="none" fill-rule="evenodd">
        <g id="珠盘" transform="translate(-1041.000000, -176.000000)" fill="#1E51B4">
            <g id="kuisun_lan" transform="translate(1041.000000, 176.000000)">
                <path d="M10,0 C15.5228475,0 20,4.4771525 20,10 C20,15.5228475 15.5228475,20 10,20 C4.4771525,20 0,15.5228475 0,10 C0,4.4771525 4.4771525,0 10,0 Z M10,3 C6.13400675,3 3,6.13400675 3,10 C3,13.8659932 6.13400675,17 10,17 C13.8659932,17 17,13.8659932 17,10 C17,6.13400675 13.8659932,3 10,3 Z" id="com_zy_dl_lq备份-2" fill-rule="nonzero"></path>
                <path d="M12.625,5.125 L5.125,12.625 C4.50367966,13.2463203 4.50367966,14.2536797 5.125,14.875 C5.74632034,15.4963203 6.75367966,15.4963203 7.375,14.875 L14.875,7.375 C15.4963203,6.75367966 15.4963203,5.74632034 14.875,5.125 C14.2536797,4.50367966 13.2463203,4.50367966 12.625,5.125 Z" id="矩形备份-3"></path>
                <path d="M12.625,5.125 L5.125,12.625 C4.50367966,13.2463203 4.50367966,14.2536797 5.125,14.875 C5.74632034,15.4963203 6.75367966,15.4963203 7.375,14.875 L14.875,7.375 C15.4963203,6.75367966 15.4963203,5.74632034 14.875,5.125 C14.2536797,4.50367966 13.2463203,4.50367966 12.625,5.125 Z" id="矩形备份-4" transform="translate(10.000000, 10.000000) scale(-1, 1) translate(-10.000000, -10.000000) "></path>
            </g>
        </g>
    </g>
</svg>