<?xml version="1.0" encoding="UTF-8"?>
<svg width="20px" height="20px" viewBox="0 0 20 20" version="1.1" xmlns="http://www.w3.org/2000/svg" xmlns:xlink="http://www.w3.org/1999/xlink">
    <!-- Generator: Sketch 61.2 (89653) - https://sketch.com -->
    <title>yinli_lan</title>
    <desc>Created with Sketch.</desc>
    <g id="页面-1" stroke="none" stroke-width="1" fill="none" fill-rule="evenodd">
        <g id="珠盘" transform="translate(-981.000000, -176.000000)">
            <g id="yinli_lan" transform="translate(981.000000, 176.000000)">
                <path d="M10,0 C15.5228475,0 20,4.4771525 20,10 C20,15.5228475 15.5228475,20 10,20 C4.4771525,20 0,15.5228475 0,10 C0,4.4771525 4.4771525,0 10,0 Z M10,3 C6.13400675,3 3,6.13400675 3,10 C3,13.8659932 6.13400675,17 10,17 C13.8659932,17 17,13.8659932 17,10 C17,6.13400675 13.8659932,3 10,3 Z" id="com_zy_dl_lq备份" fill="#1E51B4" fill-rule="nonzero"></path>
                <polyline id="路径-2" stroke="#1E51B4" stroke-width="3" stroke-linecap="round" stroke-linejoin="round" points="5 10.0031738 7.97079468 13.0063477 13.9757385 7"></polyline>
            </g>
        </g>
    </g>
</svg>