<?xml version="1.0" encoding="UTF-8"?>
<svg width="22px" height="22px" viewBox="0 0 22 22" version="1.1" xmlns="http://www.w3.org/2000/svg" xmlns:xlink="http://www.w3.org/1999/xlink">
    <!-- Generator: Sketch 63.1 (92452) - https://sketch.com -->
    <title>you_lan_lan</title>
    <desc>Created with Sketch.</desc>
    <g id="页面-1" stroke="none" stroke-width="1" fill="none" fill-rule="evenodd">
        <g id="珠盘" transform="translate(-981.000000, -269.000000)" fill="#1E51B4">
            <g id="you_lan_lan" transform="translate(981.000000, 269.000000)">
                <path d="M10.6630589,19.9776425 L10.557907,19.9846996 C10.3732287,19.9948553 10.1872152,20 10,20 C4.4771525,20 0,15.5228475 0,10 C0,4.4771525 4.4771525,0 10,0 C15.5228475,0 20,4.4771525 20,10 C20,10.2231659 19.9926898,10.4446244 19.9782957,10.6641491 C19.0740834,10.2377492 18.0648064,10 17,10 C17,6.13400675 13.8659932,3 10,3 C6.13400675,3 3,6.13400675 3,10 C3,13.8659932 6.13400675,17 10,17 C10,18.0648064 10.2377492,19.0740834 10.6630589,19.9776425 Z" id="形状结合"></path>
                <circle id="椭圆形" cx="17" cy="17" r="5"></circle>
            </g>
        </g>
    </g>
</svg>