<?xml version="1.0" encoding="UTF-8"?>
<svg width="20px" height="20px" viewBox="0 0 20 20" version="1.1" xmlns="http://www.w3.org/2000/svg" xmlns:xlink="http://www.w3.org/1999/xlink">
    <!-- Generator: Sketch 61.1 (89650) - https://sketch.com -->
    <title>com_zy_dl_lan8</title>
    <desc>Created with Sketch.</desc>
    <g id="页面-1" stroke="none" stroke-width="1" fill="none" fill-rule="evenodd">
        <g id="珠盘" transform="translate(-991.000000, -415.000000)">
            <g id="com_zy_dl_lan8" transform="translate(991.000000, 412.000000)">
                <circle id="椭圆形备份-18" stroke="#1E51B4" stroke-width="3" cx="10" cy="13" r="8.5"></circle>
                <path d="M9.6328125,22.2929688 C11.328125,22.2929688 12.6953125,21.7929688 13.734375,20.7929688 C14.7734375,19.7929688 15.2929688,18.5585938 15.2929688,17.0898438 C15.2929688,16.0273438 15.0175781,15.1132812 14.4667969,14.3476562 C13.9160156,13.5820312 13.1132812,13.0273438 12.0585938,12.6835938 C12.9101562,12.3632812 13.5449219,11.9082031 13.9628906,11.3183594 C14.3808594,10.7285156 14.5898438,10.0351562 14.5898438,9.23828125 C14.5898438,7.98828125 14.1328125,6.92773438 13.21875,6.05664062 C12.3046875,5.18554688 11.0976562,4.75 9.59765625,4.75 C8.10546875,4.75 6.91015625,5.17578125 6.01171875,6.02734375 C5.11328125,6.87890625 4.6640625,7.9296875 4.6640625,9.1796875 C4.6640625,10.0078125 4.875,10.71875 5.296875,11.3125 C5.71875,11.90625 6.3671875,12.3632812 7.2421875,12.6835938 C6.1953125,12.9570312 5.38867188,13.4707031 4.82226562,14.2246094 C4.25585938,14.9785156 3.97265625,15.9140625 3.97265625,17.03125 C3.97265625,18.53125 4.4921875,19.7832031 5.53125,20.7871094 C6.5703125,21.7910156 7.9375,22.2929688 9.6328125,22.2929688 Z M9.64453125,11.875 C8.80859375,11.875 8.12890625,11.6171875 7.60546875,11.1015625 C7.08203125,10.5859375 6.8203125,9.921875 6.8203125,9.109375 C6.8203125,8.390625 7.0859375,7.7734375 7.6171875,7.2578125 C8.1484375,6.7421875 8.81640625,6.484375 9.62109375,6.484375 C10.4179688,6.484375 11.0839844,6.74804688 11.6191406,7.27539062 C12.1542969,7.80273438 12.421875,8.453125 12.421875,9.2265625 C12.421875,9.96875 12.1621094,10.5957031 11.6425781,11.1074219 C11.1230469,11.6191406 10.4570312,11.875 9.64453125,11.875 Z M9.65625,20.5585938 C9.0078125,20.5585938 8.40234375,20.4042969 7.83984375,20.0957031 C7.27734375,19.7871094 6.85351562,19.3515625 6.56835938,18.7890625 C6.28320312,18.2265625 6.140625,17.6445312 6.140625,17.0429688 C6.140625,16.0585938 6.46679688,15.2382812 7.11914062,14.5820312 C7.77148438,13.9257812 8.59375,13.5976562 9.5859375,13.5976562 C10.6015625,13.5976562 11.4472656,13.9296875 12.1230469,14.59375 C12.7988281,15.2578125 13.1367188,16.0976562 13.1367188,17.1132812 C13.1367188,18.1132812 12.8085938,18.9375 12.1523438,19.5859375 C11.4960938,20.234375 10.6640625,20.5585938 9.65625,20.5585938 Z" id="8" fill="#4C9C2C" fill-rule="nonzero"></path>
            </g>
        </g>
    </g>
</svg>