<?xml version="1.0" encoding="UTF-8"?>
<svg width="20px" height="20px" viewBox="0 0 20 20" version="1.1" xmlns="http://www.w3.org/2000/svg" xmlns:xlink="http://www.w3.org/1999/xlink">
    <!-- Generator: Sketch 61.1 (89650) - https://sketch.com -->
    <title>com_zy_dl_lan7</title>
    <desc>Created with Sketch.</desc>
    <g id="页面-1" stroke="none" stroke-width="1" fill="none" fill-rule="evenodd">
        <g id="珠盘" transform="translate(-961.000000, -415.000000)">
            <g id="com_zy_dl_lan7" transform="translate(961.000000, 412.000000)">
                <circle id="椭圆形备份-18" stroke="#1E51B4" stroke-width="3" cx="10" cy="13" r="8.5"></circle>
                <path d="M8.70703125,22 C8.82421875,20.2890625 9.09375,18.7148438 9.515625,17.2773438 C10.1015625,15.2382812 10.9316406,13.2539062 12.0058594,11.3242188 C13.0800781,9.39453125 14.1640625,7.84765625 15.2578125,6.68359375 L15.2578125,6.68359375 L15.2578125,5.04296875 L4.13671875,5.04296875 L4.13671875,7.0703125 L12.5507812,7.0703125 C11.4804688,8.2890625 10.4707031,9.78710938 9.52148438,11.5644531 C8.57226562,13.3417969 7.84375,15.1875 7.3359375,17.1015625 C6.828125,19.015625 6.5625,20.6484375 6.5390625,22 L6.5390625,22 L8.70703125,22 Z" id="7" fill="#4C9C2C" fill-rule="nonzero"></path>
            </g>
        </g>
    </g>
</svg>