<?xml version="1.0" encoding="UTF-8"?>
<svg width="20px" height="20px" viewBox="0 0 20 20" version="1.1" xmlns="http://www.w3.org/2000/svg" xmlns:xlink="http://www.w3.org/1999/xlink">
    <!-- Generator: Sketch 61.1 (89650) - https://sketch.com -->
    <title>com_zy_dl_lan5</title>
    <desc>Created with Sketch.</desc>
    <g id="页面-1" stroke="none" stroke-width="1" fill="none" fill-rule="evenodd">
        <g id="珠盘" transform="translate(-901.000000, -415.000000)">
            <g id="com_zy_dl_lan5" transform="translate(901.000000, 412.000000)">
                <circle id="椭圆形备份-18" stroke="#1E51B4" stroke-width="3" cx="10" cy="13" r="8.5"></circle>
                <path d="M9.515625,22.2929688 C11.421875,22.2929688 12.9257812,21.5976562 14.0273438,20.2070312 C14.9335938,19.0742188 15.3867188,17.7304688 15.3867188,16.1757812 C15.3867188,14.5429688 14.8710938,13.2070312 13.8398438,12.1679688 C12.8085938,11.1289062 11.5429688,10.609375 10.0429688,10.609375 C8.91015625,10.609375 7.828125,10.96875 6.796875,11.6875 L6.796875,11.6875 L7.72265625,7.0703125 L14.578125,7.0703125 L14.578125,5.0546875 L6.03515625,5.0546875 L4.37109375,13.8789062 L6.3515625,14.1367188 C6.6640625,13.6445312 7.09375,13.2441406 7.640625,12.9355469 C8.1875,12.6269531 8.80078125,12.4726562 9.48046875,12.4726562 C10.5742188,12.4726562 11.4589844,12.8203125 12.1347656,13.515625 C12.8105469,14.2109375 13.1484375,15.1601562 13.1484375,16.3632812 C13.1484375,17.6289062 12.796875,18.6445312 12.09375,19.4101562 C11.390625,20.1757812 10.53125,20.5585938 9.515625,20.5585938 C8.671875,20.5585938 7.95117188,20.2871094 7.35351562,19.7441406 C6.75585938,19.2011719 6.375,18.390625 6.2109375,17.3125 L6.2109375,17.3125 L3.99609375,17.5 C4.13671875,18.9453125 4.70117188,20.1054688 5.68945312,20.9804688 C6.67773438,21.8554688 7.953125,22.2929688 9.515625,22.2929688 Z" id="5" fill="#4C9C2C" fill-rule="nonzero"></path>
            </g>
        </g>
    </g>
</svg>