<?xml version="1.0" encoding="UTF-8"?>
<svg width="20px" height="20px" viewBox="0 0 20 20" version="1.1" xmlns="http://www.w3.org/2000/svg" xmlns:xlink="http://www.w3.org/1999/xlink">
    <!-- Generator: Sketch 61.1 (89650) - https://sketch.com -->
    <title>com_zy_dl_lan6</title>
    <desc>Created with Sketch.</desc>
    <g id="页面-1" stroke="none" stroke-width="1" fill="none" fill-rule="evenodd">
        <g id="珠盘" transform="translate(-931.000000, -415.000000)">
            <g id="com_zy_dl_lan6" transform="translate(931.000000, 412.000000)">
                <circle id="椭圆形备份-18" stroke="#1E51B4" stroke-width="3" cx="10" cy="13" r="8.5"></circle>
                <path d="M9.8671875,22.2929688 C10.8984375,22.2929688 11.8203125,22.046875 12.6328125,21.5546875 C13.4453125,21.0625 14.0839844,20.3535156 14.5488281,19.4277344 C15.0136719,18.5019531 15.2460938,17.5 15.2460938,16.421875 C15.2460938,14.78125 14.7519531,13.4433594 13.7636719,12.4082031 C12.7753906,11.3730469 11.578125,10.8554688 10.171875,10.8554688 C9.3671875,10.8554688 8.59765625,11.0429688 7.86328125,11.4179688 C7.12890625,11.7929688 6.5078125,12.3671875 6,13.140625 C6.015625,11.421875 6.21484375,10.0976562 6.59765625,9.16796875 C6.98046875,8.23828125 7.50390625,7.53125 8.16796875,7.046875 C8.67578125,6.671875 9.265625,6.484375 9.9375,6.484375 C10.7734375,6.484375 11.4765625,6.78515625 12.046875,7.38671875 C12.390625,7.76171875 12.65625,8.36328125 12.84375,9.19140625 L12.84375,9.19140625 L14.9414062,9.02734375 C14.7695312,7.69140625 14.2519531,6.64453125 13.3886719,5.88671875 C12.5253906,5.12890625 11.4179688,4.75 10.0664062,4.75 C8.25390625,4.75 6.8125,5.40625 5.7421875,6.71875 C4.515625,8.2265625 3.90234375,10.640625 3.90234375,13.9609375 C3.90234375,16.9296875 4.45703125,19.0605469 5.56640625,20.3535156 C6.67578125,21.6464844 8.109375,22.2929688 9.8671875,22.2929688 Z M9.83203125,20.5585938 C9.22265625,20.5585938 8.640625,20.3847656 8.0859375,20.0371094 C7.53125,19.6894531 7.09960938,19.1835938 6.79101562,18.5195312 C6.48242188,17.8554688 6.328125,17.1601562 6.328125,16.4335938 C6.328125,15.3242188 6.66015625,14.4277344 7.32421875,13.7441406 C7.98828125,13.0605469 8.796875,12.71875 9.75,12.71875 C10.7109375,12.71875 11.5078125,13.0605469 12.140625,13.7441406 C12.7734375,14.4277344 13.0898438,15.3632812 13.0898438,16.5507812 C13.0898438,17.7851562 12.7695312,18.7617188 12.1289062,19.4804688 C11.4882812,20.1992188 10.7226562,20.5585938 9.83203125,20.5585938 Z" id="6" fill="#4C9C2C" fill-rule="nonzero"></path>
            </g>
        </g>
    </g>
</svg>