<?xml version="1.0" encoding="UTF-8"?>
<svg width="22px" height="20px" viewBox="0 0 22 20" version="1.1" xmlns="http://www.w3.org/2000/svg" xmlns:xlink="http://www.w3.org/1999/xlink">
    <!-- Generator: Sketch 61.1 (89650) - https://sketch.com -->
    <title>com_zy_dl_lan13</title>
    <desc>Created with Sketch.</desc>
    <g id="页面-1" stroke="none" stroke-width="1" fill="none" fill-rule="evenodd">
        <g id="珠盘" transform="translate(-1151.000000, -415.000000)">
            <g id="com_zy_dl_lan13" transform="translate(1149.000000, 412.000000)">
                <circle id="椭圆形备份-18" stroke="#1E51B4" stroke-width="3" cx="13" cy="13" r="8.5"></circle>
                <path d="M8.94140625,22 L8.94140625,4.75 L7.58203125,4.75 C7.21484375,5.4921875 6.58984375,6.2578125 5.70703125,7.046875 C4.82421875,7.8359375 3.79296875,8.5078125 2.61328125,9.0625 L2.61328125,9.0625 L2.61328125,11.1015625 C3.26953125,10.859375 4.00976562,10.4960938 4.83398438,10.0117188 C5.65820312,9.52734375 6.32421875,9.04296875 6.83203125,8.55859375 L6.83203125,8.55859375 L6.83203125,22 L8.94140625,22 Z M17.8164062,22.3046875 C19.4882812,22.3046875 20.8710938,21.7832031 21.9648438,20.7402344 C23.0585938,19.6972656 23.6054688,18.4257812 23.6054688,16.9257812 C23.6054688,15.8164062 23.3242188,14.8925781 22.7617188,14.1542969 C22.1992188,13.4160156 21.4101562,12.9296875 20.3945312,12.6953125 C21.1757812,12.3359375 21.765625,11.8515625 22.1640625,11.2421875 C22.5625,10.6328125 22.7617188,9.95703125 22.7617188,9.21484375 C22.7617188,8.43359375 22.5527344,7.6953125 22.1347656,7 C21.7167969,6.3046875 21.1132812,5.75585938 20.3242188,5.35351562 C19.5351562,4.95117188 18.671875,4.75 17.734375,4.75 C16.375,4.75 15.2382812,5.13867188 14.3242188,5.91601562 C13.4101562,6.69335938 12.8242188,7.7890625 12.5664062,9.203125 L12.5664062,9.203125 L14.6757812,9.578125 C14.8320312,8.546875 15.1835938,7.7734375 15.7304688,7.2578125 C16.2773438,6.7421875 16.9609375,6.484375 17.78125,6.484375 C18.609375,6.484375 19.2851562,6.73828125 19.8085938,7.24609375 C20.3320312,7.75390625 20.59375,8.39453125 20.59375,9.16796875 C20.59375,10.1445312 20.234375,10.8671875 19.515625,11.3359375 C18.796875,11.8046875 17.9882812,12.0390625 17.0898438,12.0390625 C17.0039062,12.0390625 16.890625,12.03125 16.75,12.015625 L16.75,12.015625 L16.515625,13.8671875 C17.109375,13.7109375 17.6054688,13.6328125 18.0039062,13.6328125 C18.9804688,13.6328125 19.7851562,13.9472656 20.4179688,14.5761719 C21.0507812,15.2050781 21.3671875,16.0039062 21.3671875,16.9726562 C21.3671875,17.9882812 21.0253906,18.8398438 20.3417969,19.5273438 C19.6582031,20.2148438 18.8203125,20.5585938 17.828125,20.5585938 C16.9921875,20.5585938 16.2832031,20.2949219 15.7011719,19.7675781 C15.1191406,19.2402344 14.7070312,18.3789062 14.4648438,17.1835938 L14.4648438,17.1835938 L12.3554688,17.4648438 C12.4960938,18.8945312 13.0644531,20.0585938 14.0605469,20.9570312 C15.0566406,21.8554688 16.3085938,22.3046875 17.8164062,22.3046875 Z" id="13" fill="#4C9C2C" fill-rule="nonzero"></path>
            </g>
        </g>
    </g>
</svg>