<?xml version="1.0" encoding="UTF-8"?>
<svg width="22px" height="20px" viewBox="0 0 22 20" version="1.1" xmlns="http://www.w3.org/2000/svg" xmlns:xlink="http://www.w3.org/1999/xlink">
    <!-- Generator: Sketch 61.1 (89650) - https://sketch.com -->
    <title>com_zy_dl_lan10</title>
    <desc>Created with Sketch.</desc>
    <g id="页面-1" stroke="none" stroke-width="1" fill="none" fill-rule="evenodd">
        <g id="珠盘" transform="translate(-1052.000000, -415.000000)">
            <g id="com_zy_dl_lan10" transform="translate(1050.000000, 412.000000)">
                <circle id="椭圆形备份-18" stroke="#1E51B4" stroke-width="3" cx="14" cy="13" r="8.5"></circle>
                <path d="M8.94140625,22 L8.94140625,4.75 L7.58203125,4.75 C7.21484375,5.4921875 6.58984375,6.2578125 5.70703125,7.046875 C4.82421875,7.8359375 3.79296875,8.5078125 2.61328125,9.0625 L2.61328125,9.0625 L2.61328125,11.1015625 C3.26953125,10.859375 4.00976562,10.4960938 4.83398438,10.0117188 C5.65820312,9.52734375 6.32421875,9.04296875 6.83203125,8.55859375 L6.83203125,8.55859375 L6.83203125,22 L8.94140625,22 Z M17.9453125,22.2929688 C19.203125,22.2929688 20.2441406,21.9550781 21.0683594,21.2792969 C21.8925781,20.6035156 22.5117188,19.6464844 22.9257812,18.4082031 C23.3398438,17.1699219 23.546875,15.5429687 23.546875,13.5273438 C23.546875,11.8242188 23.4179688,10.4707031 23.1601562,9.46679688 C22.9023438,8.46289062 22.546875,7.61132812 22.09375,6.91210938 C21.640625,6.21289062 21.0664062,5.67773438 20.3710938,5.30664062 C19.6757812,4.93554688 18.8671875,4.75 17.9453125,4.75 C16.6953125,4.75 15.6582031,5.0859375 14.8339844,5.7578125 C14.0097656,6.4296875 13.3886719,7.38476562 12.9707031,8.62304688 C12.5527344,9.86132812 12.34375,11.4960938 12.34375,13.5273438 C12.34375,16.7539062 12.9101562,19.0820312 14.0429688,20.5117188 C14.9882812,21.6992188 16.2890625,22.2929688 17.9453125,22.2929688 Z M17.9453125,20.5585938 C16.9765625,20.5585938 16.1621094,20.0917969 15.5019531,19.1582031 C14.8417969,18.2246094 14.5117188,16.3476562 14.5117188,13.5273438 C14.5117188,10.7070312 14.875,8.7734375 15.6015625,7.7265625 C16.1796875,6.90625 16.953125,6.49609375 17.921875,6.49609375 C18.90625,6.49609375 19.7285156,6.9609375 20.3886719,7.890625 C21.0488281,8.8203125 21.3789062,10.6992188 21.3789062,13.5273438 C21.3789062,16.3398438 21.0488281,18.2148438 20.3886719,19.1523438 C19.7285156,20.0898438 18.9140625,20.5585938 17.9453125,20.5585938 Z" id="10" fill="#4C9C2C" fill-rule="nonzero"></path>
            </g>
        </g>
    </g>
</svg>